<?xml version="1.0" encoding="utf-8"?>
<?xml-stylesheet type="text/xsl" href="rss1.xsl"?>
<rss version="2.0" xmlns:atom="http://www.w3.org/2005/Atom" xmlns:content="http://purl.org/rss/1.0/modules/content/" xmlns:dc="http://purl.org/dc/elements/1.1/" xmlns:media="http://search.yahoo.com/mrss/">
<channel>
 <title>Getty</title>
 <link>http://www.gettyimg.com/</link>
 <atom:link href="http://www.gettyimg.com/" rel="self" type="application/rss+xml" />

 
                <item>
                <title><![CDATA[【UPSCALED】Sugababes - About A Girl (2009) | 1080p AI Upscale]]></title>
                <link><![CDATA[https://sharemania.us/threads/sugababes-about-a-girl-2009-1080p-ai-upscale.245297/]]></link>
                <description><![CDATA[<article>
<blockquote class="messageText SelectQuoteContainer ugc baseHtml">
<img src="https://i.imgur.com/2seAUN8.jpeg" class="bbCodeImage LbImage" alt="[​IMG]" data-url="https://i.imgur.com/2seAUN8.jpeg" style=""> <img src="https://i.imgur.com/vMCwpLc.jpeg" class="bbCodeImage LbImage" alt="[​IMG]" data-url="https://i.imgur.com/vMCwpLc.jpeg" style=""> <br>
<img src="https://i.imgur.com/6ZZVF6d.jpeg" class="bbCodeImage LbImage" alt="[​IMG]" data-url="https://i.imgur.com/6ZZVF6d.jpeg" style=""> <img src="https://i.imgur.com/XBDjZ6l.jpeg" class="bbCodeImage LbImage" alt="[​IMG]" data-url="https://i.imgur.com/XBDjZ6l.jpeg" style=""> <img src="https://i.imgur.com/HMnyJVF.jpeg" class="bbCodeImage LbImage" alt="[​IMG]" data-url="https://i.imgur.com/HMnyJVF.jpeg" style=""> <br>
<br>
<div class="bbCodeBlock bbCodeVfcHH HiddenContent">
<div class="attribution type">Hidden Content:</div>
<blockquote>You must reply before you can see the hidden data contained here.</blockquote>
</div>
<div class="ToggleTriggerAnchor bbCodeSpoilerContainer">
<button type="button" class="button bbCodeSpoilerButton ToggleTrigger Tooltip JsOnly" data-target="> .SpoilerTarget"><span>Spoiler: <span class="SpoilerTitle">MediaInfo</span></span></button>
<div class="SpoilerTarget bbCodeSpoilerText"><span style="font-family: 'Courier New'">General<br>
Format : MPEG-4<br>
Format profile : Base Media / Version 2<br>
Codec ID : mp42 (isom/mp42)<br>
File size : 663 MiB<br>
Duration : 4 min 17 s<br>
Overall bit rate mode : Variable<br>
Overall bit rate : 21.6 Mb/s<br>
Frame rate : 23.976 FPS<br>
<br>
Video<br>
ID : 2<br>
Format : AVC<br>
Format/Info : Advanced Video Codec<br>
Format profile : High@L5.1<br>
Format settings : CABAC / 3 Ref Frames<br>
Format settings, CABAC : Yes<br>
Format settings, Reference fra : 3 frames<br>
Codec ID : avc1<br>
Codec ID/Info : Advanced Video Coding<br>
Duration : 4 min 17 s<br>
Bit rate mode : Variable<br>
Bit rate : 21.4 Mb/s<br>
Maximum bit rate : 30.0 Mb/s<br>
Width : 1 920 pixels<br>
Height : 1 080 pixels<br>
Display aspect ratio : 16:9<br>
Frame rate mode : Constant<br>
Frame rate : 23.976 (24000/1001) FPS<br>
Standard : NTSC<br>
Color space : YUV<br>
Chroma subsampling : 4:2:0<br>
Bit depth : 8 bits<br>
Scan type : Progressive<br>
Bits/(Pixel*Frame) : 0.430<br>
Stream size : 657 MiB (99%)<br>
Language : English<br>
Color range : Limited<br>
Color primaries : BT.709<br>
Transfer characteristics : BT.709<br>
Matrix coefficients : BT.709<br>
Codec configuration box : avcC<br>
<br>
Audio<br>
ID : 1<br>
Format : AAC LC<br>
Format/Info : Advanced Audio Codec Low Complexity<br>
Codec ID : mp4a-40-2<br>
Duration : 4 min 17 s<br>
Bit rate mode : Variable<br>
Bit rate : 192 kb/s<br>
Maximum bit rate : 294 kb/s<br>
Channel(s) : 2 channels<br>
Channel layout : L R<br>
Sampling rate : 48.0 kHz<br>
Frame rate : 46.875 FPS (1024 SPF)<br>
Compression mode : Lossy<br>
Stream size : 5.81 MiB (1%)<br>
Language : English</span></div>
</div><br>
SOURCE: Master 720p
<div class="messageTextEndMarker">&nbsp;</div>
</blockquote>
</article>]]></description>
                <author><![CDATA[lulis]]></author>
                </item>

                </channel></rss>